#!OML:ASF I:\golf\golf\golf 2\Subject 1\2002-09-07\Subject1.ASF
:FULLY-SPECIFIED
:DEGREES
336
root -7.26074 17.9994 -4.26205 -171.402 7.71593 -175.575
lowerback -10.0199 11.3783 14.4529
upperback -12.3839 18.7048 4.75977
thorax -5.94075 9.9865 -1.45723
lowerneck -5.80926 -22.1037 -4.25324
upperneck 13.5785 -33.431 7.68482
head 7.10389 -16.4027 -0.158147
rclavicle -1.59028e-015 1.11319e-014
rhumerus 100.66 35.3671 -54.3007
rradius 81.9374
rwrist 6.99723
rhand -52.6774 45.4869
rfingers 7.12502
rthumb -25.1567 17.1246
lclavicle -1.59028e-015 1.11319e-014
lhumerus 57.1461 23.9165 60.4172
lradius 93.2987
lwrist 0.886192
lhand -31.781 15.703
lfingers 7.12502
lthumb -185.037 -494.377
rfemur 16.9468 -4.95091 15.7619
rtibia 18.0244
rfoot 31.0019 -36.9768
rtoes 31.2324
lfemur -21.7278 -21.3393 -16.0486
ltibia 25.2473
lfoot 36.6407 -50.4643
ltoes 45.5113
337
root -7.2581 17.9989 -4.26232 -171.373 7.6581 -175.623
lowerback -10.0278 11.3675 14.3874
upperback -12.3606 18.6736 4.74435
thorax -5.91939 9.97254 -1.44059
lowerneck -5.93923 -21.922 -4.59395
upperneck 13.898 -33.1636 7.69023
head 7.26747 -16.2614 -0.144924
rclavicle -5.725e-014 -1.03368e-013
rhumerus 100.192 35.4984 -54.5364
rradius 81.6079
rwrist 6.75734
rhand -52.9065 45.6995
rfingers 7.12502
rthumb -25.3762 17.3682
lclavicle -5.725e-014 -1.03368e-013
lhumerus 56.7582 23.7941 59.7655
lradius 92.7635
lwrist 0.488861
lhand -31.8972 16.0019
lfingers 7.12502
lthumb -185.149 -494.081
rfemur 16.9058 -4.86911 15.7989
rtibia 18.0358
rfoot 30.6673 -37.3208
rtoes 31.7578
lfemur -21.7553 -21.2336 -16.0808
ltibia 25.1793
lfoot 37.1077 -50.2991
ltoes 45.4288
338
root -7.25827 17.9998 -4.26283 -171.33 7.60741 -175.592
lowerback -10.0907 11.3727 14.4384
upperback -12.2658 18.6174 4.75363
thorax -5.76887 9.94411 -1.42417
lowerneck -6.29141 -21.6905 -4.87151
upperneck 14.1889 -32.8044 7.74301
head 7.44973 -16.0568 -0.136156
rclavicle 3.65764e-014 -1.90833e-014
rhumerus 99.852 35.5998 -54.7079
rradius 81.3038
rwrist 6.59514
rhand -53.0551 45.9444
rfingers 7.12502
rthumb -25.5186 17.6334
lclavicle 3.65764e-014 -1.90833e-014
lhumerus 56.4699 23.6323 59.2445
lradius 92.2315
lwrist 0.295555
lhand -31.8629 16.0771
lfingers 7.12502
lthumb -185.116 -494.005
rfemur 16.8841 -4.84299 15.8689
rtibia 18.0041
rfoot 30.9451 -37.0996
rtoes 31.6124
lfemur -21.8109 -21.112 -16.0373
ltibia 25.1549
lfoot 37.7851 -50.0435
ltoes 45.6408
339
root -7.25941 18.0027 -4.26285 -171.253 7.51231 -175.501
lowerback -10.1166 11.3774 14.5656
upperback -12.2611 18.6126 4.74234
thorax -5.71779 9.93773 -1.48314
lowerneck -6.31188 -21.5269 -5.05827
upperneck 14.2049 -32.4894 7.72817
head 7.46432 -15.9047 -0.0887966
rclavicle 8.98507e-014 1.06549e-013
rhumerus 99.2616 35.6515 -55.0169
rradius 81.0188
rwrist 6.26954
rhand -52.7311 46.2967
rfingers 7.12502
rthumb -25.2081 17.9416
lclavicle 8.98507e-014 1.06549e-013
lhumerus 56.0853 23.2157 58.7144
lradius 91.6687
lwrist 0.220213
lhand -31.9352 16.1574
lfingers 7.12502
lthumb -185.186 -493.926
rfemur 16.8559 -4.83757 16.0046
rtibia 17.958
rfoot 31.3245 -36.7031
rtoes 31.2346
lfemur -21.8778 -21.0287 -15.9137
ltibia 25.151
lfoot 37.6965 -50.1504
ltoes 45.395
340
root -7.26078 18.0053 -4.26048 -171.11 7.48987 -175.387
lowerback -10.1188 11.3666 14.7074
upperback -12.3744 18.6642 4.74519
thorax -5.82021 9.96338 -1.56005
lowerneck -5.64044 -21.3766 -5.29311
upperneck 13.8949 -32.2214 7.80977
head 7.28779 -15.8259 0.0891131
rclavicle 8.50798e-014 -7.15625e-014
rhumerus 98.4103 35.775 -55.5255
rradius 80.7326
rwrist 5.86099
rhand -52.2636 46.0999
rfingers 7.12502
rthumb -24.7601 17.6825
lclavicle 8.50798e-014 -7.15625e-014
lhumerus 55.496 22.6919 58.0406
lradius 91.1217
lwrist 0.430249
lhand -31.7237 16.2111
lfingers 7.12502
lthumb -184.982 -493.867
rfemur 16.7399 -4.77388 16.1489
rtibia 17.9124
rfoot 31.2317 -36.7588
rtoes 31.439
lfemur -22.0032 -20.9303 -15.7335
ltibia 25.1532
lfoot 37.412 -50.1373
ltoes 45.1927
341
root -7.26234 18.0095 -4.25678 -170.949 7.50777 -175.333
lowerback -10.146 11.3685 14.7725
upperback -12.4197 18.685 4.73533
thorax -5.84133 9.97448 -1.59776
lowerneck -5.4368 -21.2062 -5.45403
upperneck 13.936 -31.9313 7.73627
head 7.26169 -15.7053 0.143675
rclavicle -1.24837e-013 -1.46306e-013
rhumerus 97.7491 35.8176 -55.929
rradius 80.4565
rwrist 5.53235
rhand -52.2835 45.7179
rfingers 7.12502
rthumb -24.7792 17.3032
lclavicle -1.24837e-013 -1.46306e-013
lhumerus 55.1095 22.2948 57.4721
lradius 90.5173
lwrist 0.937968
lhand -31.1566 16.1493
lfingers 7.12502
lthumb -184.434 -493.917
rfemur 16.5343 -4.68965 16.2112
rtibia 17.9591
rfoot 31.3627 -36.5698
rtoes 31.1914
lfemur -22.1589 -20.7907 -15.6207
ltibia 25.0757
lfoot 37.5265 -49.9641
ltoes 45.0693
342
root -7.26183 18.0135 -4.25259 -170.902 7.43634 -175.316
lowerback -10.0831 11.3583 14.7819
upperback -12.4006 18.6608 4.70923
thorax -5.83998 9.95435 -1.64216
lowerneck -5.8765 -21.0395 -5.53084
upperneck 14.4721 -31.6364 7.41431
head 7.44623 -15.5442 0.0184097
rclavicle -1.19271e-014 3.33958e-014
rhumerus 97.1705 35.7163 -56.2282
rradius 80.1561
rwrist 5.1541
rhand -52.3783 45.3002
rfingers 7.12502
rthumb -24.8701 16.898
lclavicle -1.19271e-014 3.33958e-014
lhumerus 54.9098 21.9175 56.9709
lradius 89.7922
lwrist 1.38158
lhand -30.7586 16.2274
lfingers 7.12502
lthumb -184.05 -493.831
rfemur 16.4114 -4.67241 16.25
rtibia 18.1454
rfoot 31.7289 -35.9242
rtoes 30.4671
lfemur -22.1345 -20.711 -15.5831
ltibia 24.8555
lfoot 37.526 -50.0629
ltoes 44.6011
